<?xml version="1.0" encoding="UTF-8" standalone="no"?>
<!-- Created with Inkscape (http://www.inkscape.org/) -->

<svg
   width="514.54901"
   height="436.668"
   viewBox="0 0 136.14109 115.53508"
   version="1.1"
   id="svg40638"
   inkscape:version="1.1.2 (b8e25be833, 2022-02-05)"
   sodipodi:docname="2222svg.svg"
   xmlns:inkscape="http://www.inkscape.org/namespaces/inkscape"
   xmlns:sodipodi="http://sodipodi.sourceforge.net/DTD/sodipodi-0.dtd"
   xmlns="http://www.w3.org/2000/svg"
   xmlns:svg="http://www.w3.org/2000/svg">
  <sodipodi:namedview
     id="namedview40640"
     pagecolor="#ffffff"
     bordercolor="#666666"
     borderopacity="1.0"
     inkscape:pageshadow="2"
     inkscape:pageopacity="0.0"
     inkscape:pagecheckerboard="false"
     inkscape:document-units="mm"
     showgrid="false"
     units="px"
     inkscape:lockguides="false"
     showguides="true"
     showborder="true"
     inkscape:zoom="1.1598906"
     inkscape:cx="397.88236"
     inkscape:cy="228.46983"
     inkscape:window-width="1600"
     inkscape:window-height="837"
     inkscape:window-x="-8"
     inkscape:window-y="-8"
     inkscape:window-maximized="1"
     inkscape:current-layer="layer1" />
  <defs
     id="defs40635" />
  <g
     inkscape:label="图层 1"
     inkscape:groupmode="layer"
     id="layer1">
    <g
       id="g61"
       transform="matrix(0.26458333,0,0,0.26458333,1.3929501,-4.375818)" />
    <g
       id="g63"
       transform="matrix(0.26458333,0,0,0.26458333,1.3929501,-4.375818)" />
    <g
       id="g65"
       transform="matrix(0.26458333,0,0,0.26458333,1.3929501,-4.375818)" />
    <g
       id="g67"
       transform="matrix(0.26458333,0,0,0.26458333,1.3929501,-4.375818)" />
    <g
       id="g69"
       transform="matrix(0.26458333,0,0,0.26458333,1.3929501,-4.375818)" />
    <g
       id="g71"
       transform="matrix(0.26458333,0,0,0.26458333,1.3929501,-4.375818)" />
    <g
       id="g73"
       transform="matrix(0.26458333,0,0,0.26458333,1.3929501,-4.375818)" />
    <g
       id="g75"
       transform="matrix(0.26458333,0,0,0.26458333,1.3929501,-4.375818)" />
    <g
       id="g77"
       transform="matrix(0.26458333,0,0,0.26458333,1.3929501,-4.375818)" />
    <g
       id="g79"
       transform="matrix(0.26458333,0,0,0.26458333,1.3929501,-4.375818)" />
    <g
       id="g81"
       transform="matrix(0.26458333,0,0,0.26458333,1.3929501,-4.375818)" />
    <g
       id="g83"
       transform="matrix(0.26458333,0,0,0.26458333,1.3929501,-4.375818)" />
    <g
       id="g85"
       transform="matrix(0.26458333,0,0,0.26458333,1.3929501,-4.375818)" />
    <g
       id="g87"
       transform="matrix(0.26458333,0,0,0.26458333,1.3929501,-4.375818)" />
    <g
       id="g89"
       transform="matrix(0.26458333,0,0,0.26458333,1.3929501,-4.375818)" />
    <g
       id="g41493"
       transform="matrix(1.2827711,0,0,1.3296172,-13.984225,-15.880462)">
      <rect
         style="fill:#0000fc;fill-opacity:1;stroke-width:0.269585"
         id="rect26481"
         width="6.3632941"
         height="53.228519"
         x="25.253315"
         y="30.936424" />
      <rect
         style="fill:#0000fc;fill-opacity:1;stroke-width:0.269585"
         id="rect26481-8"
         width="6.3632941"
         height="53.228519"
         x="60.581429"
         y="30.413385" />
      <rect
         style="fill:#0000fc;fill-opacity:1;stroke-width:0.269585"
         id="rect26481-4"
         width="6.3629999"
         height="53.228519"
         x="93.913147"
         y="30.185276" />
      <rect
         style="fill:#ca00ff;fill-opacity:1;stroke-width:0.269585"
         id="rect26481-3"
         width="6.3632941"
         height="53.228519"
         x="47.7384"
         y="30.547014" />
      <rect
         style="fill:#ca00ff;fill-opacity:1;stroke-width:0.269585"
         id="rect26481-3-8"
         width="6.3632941"
         height="53.228519"
         x="75.909477"
         y="30.507877" />
    </g>
  </g>
</svg>
