<svg height="512pt" viewBox="0 -8 512 512" width="512pt" xmlns="http://www.w3.org/2000/svg"><path d="m504.21875 239.78125h-96.304688c21.761719-100.277344 46.726563-209.707031 87.972657-209.707031 4.296875 0 7.78125-3.484375 7.78125-7.78125s-3.484375-7.78125-7.78125-7.78125c-34.066407 0-53.574219 43.109375-65.285157 75.535156-14.863281 41.160156-26.972656 96.042969-38.613281 149.734375h-182.703125c-10.421875-48.078125-21.238281-97.175781-34.066406-136.441406 11.9375-7.675782 19.34375-20.945313 19.34375-35.5 0-4.296875-3.484375-7.78125-7.78125-7.78125-4.300781 0-7.78125 3.484375-7.78125 7.78125 0 10.746094-6.386719 20.386718-16.28125 24.566406-3.28125 1.394531-6.769531 2.097656-10.375 2.097656-14.703125 0-26.664062-11.960937-26.664062-26.664062 0-9.410156 5.050781-18.226563 13.167968-23 4.078125-2.390625 8.742188-3.652344 13.496094-3.652344 4.269531 0 8.339844.972656 12.105469 2.898438 3.828125 1.957031 8.515625.4375 10.472656-3.390626 1.953125-3.824218.4375-8.511718-3.390625-10.46875-5.894531-3.011718-12.527344-4.601562-19.1875-4.601562-5.386719 0-10.703125 1.042969-15.671875 3.023438-9.589844-9.386719-20.089844-14.136719-31.285156-14.136719-44.199219 0-68.601563 72.261719-89.824219 162.226562v-168.957031c0-4.296875-3.480469-7.78125-7.78125-7.78125-4.296875 0-7.78125 3.484375-7.78125 7.78125v479.5625c0 4.296875 3.484375 7.78125 7.78125 7.78125 4.300781 0 7.78125-3.484375 7.78125-7.78125v-231.996094h181.167969c25.304687 116.699219 49.753906 225.269532 103.898437 225.269532 21.972656 0 40.625-17.878907 56.921875-54.582032 2.125.324219 4.28125.496094 6.453125.496094 23.277344 0 42.21875-18.9375 42.21875-42.21875 0-16.089844-8.90625-30.363281-22.785156-37.5 7.441406-28.789062 14.382812-60.472656 21.101562-91.464844h99.679688c4.296875 0 7.78125-3.484375 7.78125-7.78125s-3.484375-7.785156-7.78125-7.785156zm-398.832031-209.707031c6.136719 0 12 2.398437 17.777343 7.289062-8.199218 7.886719-13.046874 18.886719-13.046874 30.476563 0 23.285156 18.945312 42.230468 42.226562 42.230468 2.859375 0 5.675781-.285156 8.425781-.84375 12.148438 37.460938 22.566407 84.351563 32.589844 130.554688h-175.957031c21.753906-100.246094 46.707031-209.707031 87.984375-209.707031zm258.617187 380.894531c-2.925781 0-5.796875-.46875-8.53125-1.386719-10.847656-3.660156-18.132812-13.816406-18.132812-25.269531 0-14.699219 11.960937-26.65625 26.664062-26.65625 2.558594 0 5.109375.367188 7.582032 1.085938.101562.039062.207031.074218.3125.105468 11.21875 3.460938 18.757812 13.695313 18.757812 25.464844 0 14.699219-11.953125 26.65625-26.652344 26.65625zm4.507813-68.605469c-1.496094-.160156-3-.269531-4.507813-.269531-23.285156 0-42.226562 18.9375-42.226562 42.21875 0 15.277344 8.191406 29.097656 21.046875 36.539062-13.199219 29.335938-27.375 44.203126-42.195313 44.203126-41.242187 0-66.207031-109.433594-87.972656-209.710938h175.957031c-6.421875 29.59375-13.046875 59.675781-20.101562 87.019531zm0 0"/></svg>